#!OML:ASF C:\ViconDB\ViconDB\414\Spring2016\041811\Spring2016.ASF
:FULLY-SPECIFIED
:DEGREES
408
root 7.94021 17.9029 -48.226 -182.589 -1.20899 -170.717
lowerback -4.02231 2.49941 -0.473
upperback 0.185088 3.3502 0.0842668
thorax 2.40988 1.66306 0.55238
lowerneck -11.2638 9.10484 1.96949
upperneck 37.471 2.0697 16.7417
head 14.7703 1.67525 6.64305
rclavicle -2.9271e-014 4.77083e-014
rhumerus -96.1081 38.8389 -133.263
rradius 83.7718
rwrist 16.776
rhand -48.3123 -8.32953
rfingers 7.12502
rthumb -20.9684 -37.2161
lclavicle -2.9271e-014 4.77083e-014
lhumerus -84.8959 -46.2913 118.95
lradius 80.4792
lwrist -25.2608
lhand -40.1022 -4.16544
lfingers 7.12502
lthumb -13.0663 25.4053
rfemur 91.6025 436.695 -577.578
rtibia 36.3465
rfoot -828.273 -46.3235
rtoes 1.62417
lfemur -38.3675 -4.30774 -4.44876
ltibia 35.4169
lfoot -12.4884 -7.2693
ltoes -11.3046
409
root 7.93002 17.9075 -48.4369 -182.623 -1.12117 -170.772
lowerback -4.07447 2.69094 -0.567162
upperback 0.195004 3.61305 -0.0269385
thorax 2.44772 1.79326 0.509549
lowerneck -11.3907 8.88202 1.49946
upperneck 37.3294 1.62939 17.3375
head 14.7592 1.48167 6.92152
rclavicle -1.56543e-014 4.92986e-014
rhumerus -96.508 38.8245 -133.771
rradius 83.6595
rwrist 16.5535
rhand -48.7194 -8.56978
rfingers 7.12502
rthumb -21.3595 -37.4125
lclavicle -1.56543e-014 4.92986e-014
lhumerus -84.3572 -46.3092 118.488
lradius 80.597
lwrist -25.1023
lhand -39.7151 -4.70846
lfingers 7.12502
lthumb -12.6932 24.8858
rfemur 93.8154 435.624 -575.729
rtibia 35.6187
rfoot -827.208 -46.6273
rtoes 1.94809
lfemur -38.0567 -5.71117 -4.01429
ltibia 32.9626
lfoot -12.8472 -6.70376
ltoes -10.9964
410
root 7.9235 17.9062 -48.6512 -182.719 -0.976177 -170.675
lowerback -4.08563 2.74704 -0.686188
upperback 0.159376 3.69407 -0.074288
thorax 2.41205 1.83247 0.531479
lowerneck -11.2758 8.87883 1.55428
upperneck 37.3574 1.48217 17.5116
head 14.7698 1.41972 6.96257
rclavicle 3.32964e-014 2.38542e-014
rhumerus -97.2358 38.9379 -134.805
rradius 83.4821
rwrist 16.248
rhand -48.9466 -9.00145
rfingers 7.12502
rthumb -21.5777 -37.8193
lclavicle 3.32964e-014 2.38542e-014
lhumerus -83.6812 -45.887 117.579
lradius 80.7703
lwrist -25.0868
lhand -40.2384 -5.36488
lfingers 7.12502
lthumb -13.1976 24.1974
rfemur 96.821 434.319 -572.905
rtibia 34.8064
rfoot -825.541 -46.8083
rtoes 2.57869
lfemur -37.7406 -7.08952 -3.36504
ltibia 31.0239
lfoot -13.2672 -5.90637
ltoes -10.3649
411
root 7.9133 17.9017 -48.8668 -182.766 -0.814689 -170.601
lowerback -4.08863 2.97972 -0.594663
upperback 0.137799 4.00159 -0.165802
thorax 2.40056 1.9874 0.404837
lowerneck -11.1801 8.73755 1.49437
upperneck 37.2735 1.22089 17.6736
head 14.7403 1.30519 6.99546
rclavicle 1.86858e-014 1.06549e-013
rhumerus -97.6044 38.8028 -135.38
rradius 83.3079
rwrist 16.2461
rhand -49.4562 -9.63403
rfingers 7.12502
rthumb -22.0671 -38.3949
lclavicle 1.86858e-014 1.06549e-013
lhumerus -83.1635 -45.9745 117.012
lradius 80.9534
lwrist -25.2802
lhand -39.9652 -5.6049
lfingers 7.12502
lthumb -12.9342 23.9742
rfemur 100.222 432.909 -569.692
rtibia 33.9661
rfoot -823.543 -47.0885
rtoes 3.91084
lfemur -37.5175 -8.70124 -2.64117
ltibia 29.4838
lfoot -13.8951 -4.7518
ltoes -9.75311
412
root 7.89769 17.8913 -49.086 -182.821 -0.584823 -170.572
lowerback -3.28575 3.48064 0.0921755
upperback -1.25158 4.60987 -1.06167
thorax 0.648182 2.28748 -0.961204
lowerneck -8.4554 8.75955 2.98494
upperneck 37.0642 0.298479 18.3695
head 14.2235 0.893597 6.71282
rclavicle 5.26779e-014 7.95139e-015
rhumerus -98.5617 35.7202 -137.188
rradius 82.959
rwrist 16.4341
rhand -49.9868 -10.3306
rfingers 7.12502
rthumb -22.5764 -39.0305
lclavicle 5.26779e-014 7.95139e-015
lhumerus -86.6571 -45.9481 118.173
lradius 81.4097
lwrist -25.7306
lhand -39.6535 -5.58118
lfingers 7.12502
lthumb -12.6338 24.0167
rfemur 103.959 431.229 -566.108
rtibia 33.1997
rfoot -821.15 -47.3562
rtoes 4.49772
lfemur -37.2598 -9.85532 -2.19323
ltibia 28.3865
lfoot -14.3674 -3.75303
ltoes -9.26431
413
root 7.87941 17.88 -49.3056 -182.821 -0.366986 -170.569
lowerback -3.24341 3.70547 0.24501
upperback -1.40303 4.899 -1.21135
thorax 0.500388 2.42839 -1.19569
lowerneck -8.31767 8.64744 2.81466
upperneck 37.1135 0.00571961 18.631
head 14.2482 0.738268 6.81733
rclavicle -1.72943e-014 2.06736e-014
rhumerus -98.9361 35.4151 -137.82
rradius 82.882
rwrist 15.8022
rhand -50.1301 -10.325
rfingers 7.12502
rthumb -22.714 -39.0081
lclavicle -1.72943e-014 2.06736e-014
lhumerus -86.3827 -45.9942 117.712
lradius 81.5694
lwrist -25.7912
lhand -38.8553 -5.69075
lfingers 7.12502
lthumb -11.8641 23.9531
rfemur 108.985 429.182 -561.19
rtibia 32.4818
rfoot -817.656 -47.0194
rtoes 2.06133
lfemur -36.9661 -11.0044 -1.86701
ltibia 27.6692
lfoot -15.0684 -2.67178
ltoes -8.88317
414
root 7.85655 17.8612 -49.5302 -182.792 -0.131679 -170.583
lowerback -3.33399 3.86288 0.330784
upperback -1.51168 5.1006 -1.3416
thorax 0.463425 2.52567 -1.36574
lowerneck -8.20839 8.57561 2.76323
upperneck 37.2394 -0.234948 18.7575
head 14.3164 0.606936 6.85779
rclavicle -3.63776e-014 8.5875e-014
rhumerus -99.3966 35.256 -138.63
rradius 82.6686
rwrist 15.8462
rhand -50.5727 -11.2247
rfingers 7.12502
rthumb -23.1387 -39.8551
lclavicle -3.63776e-014 8.5875e-014
lhumerus -85.856 -45.824 116.972
lradius 81.7019
lwrist -26.2933
lhand -38.9586 -5.92128
lfingers 7.12502
lthumb -11.9638 23.7168
rfemur 113.431 426.898 -556.782
rtibia 31.8446
rfoot -814.284 -46.9866
rtoes 0.596481
lfemur -36.6701 -11.3408 -1.98873
ltibia 27.2772
lfoot -14.2756 -2.43242
ltoes -11.5186
